Cuprum-Bold.ufo
<glyph name="quotesingle" format="2">
  <advance width="200"/>
  <unicode hex="0027"/>
  <outline>
    <contour>
      <point x="65" y="465" type="line"/>
      <point x="135" y="465" type="line"/>
      <point x="160" y="700" type="line"/>
      <point x="40" y="700" type="line"/>
    </contour>
  </outline>
</glyph>
<glyph name="parenleft" format="2">
  <advance width="266"/>
  <unicode hex="0028"/>
  <outline>
    <contour>
      <point x="210" y="-190" type="curve"/>
      <point x="266" y="-160" type="line"/>
      <point x="205" y="-20"/>
      <point x="180" y="110"/>
      <point x="180" y="280" type="curve"/>
      <point x="180" y="450"/>
      <point x="205" y="580"/>
      <point x="266" y="720" type="curve"/>
      <point x="210" y="750" type="line"/>
      <point x="90" y="600"/>
      <point x="50" y="410"/>
      <point x="50" y="280" type="curve"/>
      <point x="50" y="150"/>
      <point x="90" y="-40"/>
    </contour>
  </outline>
</glyph>
<glyph name="parenright" format="2">
  <advance width="266"/>
  <unicode hex="0029"/>
  <outline>
    <contour>
      <point x="56" y="-190" type="line"/>
      <point x="176" y="-40"/>
      <point x="216" y="150"/>
      <point x="216" y="280" type="curve" smooth="yes"/>
      <point x="216" y="410"/>
      <point x="176" y="600"/>
      <point x="56" y="750" type="curve"/>
      <point x="0" y="720" type="line"/>
      <point x="61" y="580"/>
      <point x="86" y="450"/>
      <point x="86" y="280" type="curve" smooth="yes"/>
      <point x="86" y="110"/>
      <point x="61" y="-20"/>
      <point x="0" y="-160" type="curve"/>
    </contour>
  </outline>
</glyph>
<glyph name="asterisk" format="2">
  <advance width="450"/>
  <unicode hex="002A"/>
  <outline>
    <contour>
      <point x="163" y="310" type="line"/>
      <point x="225" y="428" type="line"/>
      <point x="287" y="310" type="line"/>
      <point x="373" y="357" type="line"/>
      <point x="311" y="474" type="line"/>
      <point x="430" y="500" type="line"/>
      <point x="408" y="592" type="line"/>
      <point x="275" y="563" type="line"/>
      <point x="275" y="700" type="line"/>
      <point x="175" y="700" type="line"/>
      <point x="175" y="563" type="line"/>
      <point x="42" y="592" type="line"/>
      <point x="20" y="500" type="line"/>
      <point x="139" y="474" type="line"/>
      <point x="77" y="357" type="line"/>
    </contour>
  </outline>
</glyph>
<glyph name="two" format="2">
  <advance width="420"/>
  <unicode hex="0032"/>
  <outline>
    <contour>
      <point x="15" y="0" type="line"/>
      <point x="385" y="0" type="line"/>
      <point x="385" y="80" type="line"/>
      <point x="135" y="80" type="line"/>
      <point x="275" y="240"/>
      <point x="390" y="375"/>
      <point x="390" y="500" type="curve" smooth="yes"/>
      <point x="390" y="640"/>
      <point x="320" y="710"/>
      <point x="185" y="710" type="curve" smooth="yes"/>
      <point x="115" y="710"/>
      <point x="55" y="700"/>
      <point x="25" y="690" type="curve"/>
      <point x="25" y="635" type="line"/>
      <point x="165" y="635" type="line" smooth="yes"/>
      <point x="230" y="635"/>
      <point x="270" y="595"/>
      <point x="270" y="500" type="curve" smooth="yes"/>
      <point x="270" y="385"/>
      <point x="195" y="295"/>
      <point x="15" y="90" type="curve"/>
    </contour>
  </outline>
</glyph>
<glyph name="five" format="2">
  <advance width="465"/>
  <unicode hex="0035"/>
  <outline>
    <contour>
      <point x="205" y="-10" type="curve" smooth="yes"/>
      <point x="360" y="-10"/>
      <point x="430" y="60"/>
      <point x="430" y="200" type="curve" smooth="yes"/>
      <point x="430" y="345"/>
      <point x="360" y="415"/>
      <point x="205" y="415" type="curve" smooth="yes"/>
      <point x="175" y="415" type="line"/>
      <point x="175" y="625" type="line"/>
      <point x="405" y="625" type="line"/>
      <point x="405" y="700" type="line"/>
      <point x="55" y="700" type="line"/>
      <point x="55" y="340" type="line"/>
      <point x="185" y="340" type="line" smooth="yes"/>
      <point x="270" y="340"/>
      <point x="310" y="300"/>
      <point x="310" y="200" type="curve" smooth="yes"/>
      <point x="310" y="105"/>
      <point x="270" y="65"/>
      <point x="185" y="65" type="curve" smooth="yes"/>
      <point x="45" y="65" type="line"/>
      <point x="45" y="10" type="line"/>
      <point x="75" y="0"/>
      <point x="135" y="-10"/>
    </contour>
  </outline>
</glyph>
<glyph name="colon" format="2">
  <advance width="200"/>
  <unicode hex="003A"/>
  <outline>
    <contour>
      <point x="40" y="380" type="line"/>
      <point x="160" y="380" type="line"/>
      <point x="160" y="500" type="line"/>
      <point x="40" y="500" type="line"/>
    </contour>
    <contour>
      <point x="40" y="-10" type="line"/>
      <point x="160" y="-10" type="line"/>
      <point x="160" y="110" type="line"/>
      <point x="40" y="110" type="line"/>
    </contour>
  </outline>
</glyph>
<glyph name="semicolon" format="2">
  <advance width="190"/>
  <unicode hex="003B"/>
  <outline>
    <contour>
      <point x="40" y="-120" type="line"/>
      <point x="120" y="-120" type="line"/>
      <point x="160" y="110" type="line"/>
      <point x="40" y="110" type="line"/>
    </contour>
    <contour>
      <point x="40" y="380" type="line"/>
      <point x="160" y="380" type="line"/>
      <point x="160" y="500" type="line"/>
      <point x="40" y="500" type="line"/>
    </contour>
  </outline>
</glyph>
<glyph name="equal" format="2">
  <advance width="450"/>
  <unicode hex="003D"/>
  <outline>
    <contour>
      <point x="30" y="345" type="line"/>
      <point x="420" y="345" type="line"/>
      <point x="420" y="430" type="line"/>
      <point x="30" y="430" type="line"/>
    </contour>
    <contour>
      <point x="30" y="170" type="line"/>
      <point x="420" y="170" type="line"/>
      <point x="420" y="255" type="line"/>
      <point x="30" y="255" type="line"/>
    </contour>
  </outline>
</glyph>
<glyph name="question" format="2">
  <advance width="395"/>
  <unicode hex="003F"/>
  <outline>
    <contour>
      <point x="105" y="185" type="curve"/>
      <point x="205" y="185" type="line"/>
      <point x="215" y="330"/>
      <point x="365" y="350"/>
      <point x="365" y="520" type="curve" smooth="yes"/>
      <point x="365" y="640"/>
      <point x="295" y="710"/>
      <point x="170" y="710" type="curve" smooth="yes"/>
      <point x="100" y="710"/>
      <point x="40" y="700"/>
      <point x="10" y="690" type="curve"/>
      <point x="10" y="635" type="line"/>
      <point x="140" y="635" type="line" smooth="yes"/>
      <point x="205" y="635"/>
      <point x="245" y="595"/>
      <point x="245" y="520" type="curve" smooth="yes"/>
      <point x="245" y="380"/>
      <point x="105" y="370"/>
    </contour>
    <contour>
      <point x="95" y="-10" type="line"/>
      <point x="215" y="-10" type="line"/>
      <point x="215" y="110" type="line"/>
      <point x="95" y="110" type="line"/>
    </contour>
  </outline>
</glyph>
<glyph name="F" format="2">
  <advance width="455"/>
  <unicode hex="0046"/>
  <outline>
    <contour>
      <point x="70" y="0" type="line"/>
      <point x="190" y="0" type="line"/>
      <point x="190" y="310" type="line"/>
      <point x="395" y="310" type="line"/>
      <point x="395" y="390" type="line"/>
      <point x="190" y="390" type="line"/>
      <point x="190" y="620" type="line"/>
      <point x="435" y="620" type="line"/>
      <point x="435" y="700" type="line"/>
      <point x="70" y="700" type="line"/>
    </contour>
  </outline>
</glyph>
<glyph name="W" format="2">
  <advance width="750"/>
  <unicode hex="0057"/>
  <outline>
    <contour>
      <point x="140" y="0" type="line"/>
      <point x="270" y="0" type="line"/>
      <point x="373" y="390" type="line"/>
      <point x="377" y="390" type="line"/>
      <point x="480" y="0" type="line"/>
      <point x="610" y="0" type="line"/>
      <point x="735" y="700" type="line"/>
      <point x="610" y="700" type="line"/>
      <point x="525" y="195" type="line"/>
      <point x="521" y="195" type="line"/>
      <point x="425" y="570" type="line"/>
      <point x="325" y="570" type="line"/>
      <point x="229" y="195" type="line"/>
      <point x="225" y="195" type="line"/>
      <point x="140" y="700" type="line"/>
      <point x="15" y="700" type="line"/>
    </contour>
  </outline>
</glyph>
<glyph name="Y" format="2">
  <advance width="480"/>
  <unicode hex="0059"/>
  <anchor x="240" y="0" name="bottom"/>
  <anchor x="240" y="700" name="top"/>
  <anchor x="20" y="700" name="topleft"/>
  <outline>
    <contour>
      <point x="180" y="0" type="line"/>
      <point x="300" y="0" type="line"/>
      <point x="300" y="210" type="line"/>
      <point x="475" y="700" type="line"/>
      <point x="350" y="700" type="line"/>
      <point x="240" y="359" type="line"/>
      <point x="130" y="700" type="line"/>
      <point x="5" y="700" type="line"/>
      <point x="180" y="210" type="line"/>
    </contour>
  </outline>
</glyph>
<glyph name="backslash" format="2">
  <advance width="420"/>
  <unicode hex="005C"/>
  <outline>
    <contour>
      <point x="300" y="0" type="line"/>
      <point x="420" y="0" type="line"/>
      <point x="120" y="700" type="line"/>
      <point x="0" y="700" type="line"/>
    </contour>
  </outline>
</glyph>
<glyph name="b" format="2">
  <advance width="495"/>
  <unicode hex="0062"/>
  <outline>
    <contour>
      <point x="235" y="-10" type="curve" smooth="yes"/>
      <point x="385" y="-10"/>
      <point x="455" y="60"/>
      <point x="455" y="250" type="curve" smooth="yes"/>
      <point x="455" y="440"/>
      <point x="385" y="510"/>
      <point x="275" y="510" type="curve" smooth="yes"/>
      <point x="240" y="510"/>
      <point x="211" y="500"/>
      <point x="190" y="485" type="curve"/>
      <point x="190" y="700" type="line"/>
      <point x="70" y="700" type="line"/>
      <point x="70" y="20" type="line"/>
      <point x="120" y="0"/>
      <point x="165" y="-10"/>
    </contour>
    <contour>
      <point x="190" y="60" type="line"/>
      <point x="190" y="420" type="line"/>
      <point x="200" y="430"/>
      <point x="220" y="440"/>
      <point x="245" y="440" type="curve" smooth="yes"/>
      <point x="295" y="440"/>
      <point x="335" y="400"/>
      <point x="335" y="250" type="curve" smooth="yes"/>
      <point x="335" y="100"/>
      <point x="295" y="60"/>
      <point x="235" y="60" type="curve" smooth="yes"/>
    </contour>
  </outline>
</glyph>
<glyph name="r" format="2">
  <advance width="360"/>
  <unicode hex="0072"/>
  <outline>
    <contour>
      <point x="65" y="0" type="line"/>
      <point x="185" y="0" type="line"/>
      <point x="185" y="395" type="line"/>
      <point x="195" y="405"/>
      <point x="215" y="415"/>
      <point x="240" y="415" type="curve" smooth="yes"/>
      <point x="350" y="415" type="line"/>
      <point x="350" y="500" type="line"/>
      <point x="285" y="500" type="line"/>
      <point x="225" y="500"/>
      <point x="191" y="480"/>
      <point x="170" y="460" type="curve"/>
      <point x="165" y="460" type="line"/>
      <point x="150" y="500" type="line"/>
      <point x="65" y="500" type="line"/>
    </contour>
  </outline>
</glyph>
<glyph name="t" format="2">
  <advance width="365"/>
  <unicode hex="0074"/>
  <outline>
    <contour>
      <point x="230" y="-10" type="curve" smooth="yes"/>
      <point x="270" y="-10"/>
      <point x="325" y="0"/>
      <point x="350" y="10" type="curve"/>
      <point x="350" y="60" type="line"/>
      <point x="260" y="60" type="line" smooth="yes"/>
      <point x="230" y="60"/>
      <point x="195" y="80"/>
      <point x="195" y="160" type="curve" smooth="yes"/>
      <point x="195" y="415" type="line"/>
      <point x="200" y="415" type="line"/>
      <point x="250" y="415"/>
      <point x="300" y="425"/>
      <point x="330" y="435" type="curve"/>
      <point x="330" y="490" type="line"/>
      <point x="195" y="490" type="line"/>
      <point x="195" y="610" type="line"/>
      <point x="75" y="610" type="line"/>
      <point x="75" y="490" type="line"/>
      <point x="20" y="490" type="line"/>
      <point x="20" y="415" type="line"/>
      <point x="75" y="415" type="line"/>
      <point x="75" y="160" type="line" smooth="yes"/>
      <point x="75" y="20"/>
      <point x="145" y="-10"/>
    </contour>
  </outline>
</glyph>
<glyph name="z" format="2">
  <advance width="400"/>
  <unicode hex="007A"/>
  <outline>
    <contour>
      <point x="20" y="0" type="line"/>
      <point x="375" y="0" type="line"/>
      <point x="375" y="75" type="line"/>
      <point x="160" y="75" type="line"/>
      <point x="380" y="430" type="line"/>
      <point x="380" y="500" type="line"/>
      <point x="30" y="500" type="line"/>
      <point x="30" y="425" type="line"/>
      <point x="240" y="425" type="line"/>
      <point x="20" y="70" type="line"/>
    </contour>
  </outline>
</glyph>
<glyph name="braceleft" format="2">
  <advance width="300"/>
  <unicode hex="007B"/>
  <outline>
    <contour>
      <point x="300" y="-180" type="curve"/>
      <point x="300" y="-110" type="line"/>
      <point x="255" y="-110"/>
      <point x="215" y="-99"/>
      <point x="215" y="-10" type="curve" smooth="yes"/>
      <point x="215" y="100" type="line" smooth="yes"/>
      <point x="215" y="210"/>
      <point x="175" y="245"/>
      <point x="125" y="278" type="curve"/>
      <point x="125" y="282" type="line"/>
      <point x="175" y="315"/>
      <point x="215" y="350"/>
      <point x="215" y="460" type="curve" smooth="yes"/>
      <point x="215" y="570" type="line"/>
      <point x="215" y="650"/>
      <point x="255" y="670"/>
      <point x="300" y="670" type="curve"/>
      <point x="300" y="740" type="line"/>
      <point x="165" y="740"/>
      <point x="95" y="710"/>
      <point x="95" y="570" type="curve" smooth="yes"/>
      <point x="95" y="440" type="line" smooth="yes"/>
      <point x="95" y="360"/>
      <point x="65" y="330"/>
      <point x="20" y="315" type="curve"/>
      <point x="20" y="245" type="line"/>
      <point x="65" y="230"/>
      <point x="95" y="200"/>
      <point x="95" y="120" type="curve" smooth="yes"/>
      <point x="95" y="-10" type="line" smooth="yes"/>
      <point x="95" y="-150"/>
      <point x="165" y="-180"/>
    </contour>
  </outline>
</glyph>
<glyph name="dieresis" format="2">
  <advance width="310"/>
  <unicode hex="00A8"/>
  <outline>
    <contour>
      <point x="180" y="570" type="line"/>
      <point x="290" y="570" type="line"/>
      <point x="290" y="690" type="line"/>
      <point x="180" y="690" type="line"/>
    </contour>
    <contour>
      <point x="20" y="570" type="line"/>
      <point x="130" y="570" type="line"/>
      <point x="130" y="690" type="line"/>
      <point x="20" y="690" type="line"/>
    </contour>
  </outline>
</glyph>
<glyph name="ordfeminine" format="2">
  <advance width="305"/>
  <unicode hex="00AA"/>
  <outline>
    <contour>
      <point x="125" y="395" type="curve" smooth="yes"/>
      <point x="155" y="395"/>
      <point x="175" y="405"/>
      <point x="195" y="420" type="curve"/>
      <point x="205" y="400" type="line"/>
      <point x="275" y="400" type="line"/>
      <point x="275" y="600" type="line" smooth="yes"/>
      <point x="275" y="685"/>
      <point x="230" y="705"/>
      <point x="145" y="705" type="curve" smooth="yes"/>
      <point x="110" y="705"/>
      <point x="75" y="700"/>
      <point x="55" y="693" type="curve"/>
      <point x="55" y="645" type="line"/>
      <point x="135" y="645" type="line" smooth="yes"/>
      <point x="170" y="645"/>
      <point x="190" y="630"/>
      <point x="190" y="600" type="curve" smooth="yes"/>
      <point x="190" y="585" type="line"/>
      <point x="190" y="585"/>
      <point x="160" y="590"/>
      <point x="135" y="590" type="curve" smooth="yes"/>
      <point x="75" y="590"/>
      <point x="30" y="565"/>
      <point x="30" y="490" type="curve" smooth="yes"/>
      <point x="30" y="420"/>
      <point x="75" y="395"/>
    </contour>
    <contour>
      <point x="155" y="455" type="curve" smooth="yes"/>
      <point x="130" y="455"/>
      <point x="115" y="470"/>
      <point x="115" y="490" type="curve" smooth="yes"/>
      <point x="115" y="515"/>
      <point x="130" y="530"/>
      <point x="155" y="530" type="curve" smooth="yes"/>
      <point x="190" y="530" type="line"/>
      <point x="190" y="460" type="line"/>
      <point x="190" y="460"/>
      <point x="175" y="455"/>
    </contour>
  </outline>
</glyph>
<glyph name="degree" format="2">
  <advance width="410"/>
  <unicode hex="00B0"/>
  <outline>
    <contour>
      <point x="205" y="390" type="curve"/>
      <point x="310" y="390"/>
      <point x="370" y="450"/>
      <point x="370" y="550" type="curve" smooth="yes"/>
      <point x="370" y="650"/>
      <point x="310" y="710"/>
      <point x="205" y="710" type="curve"/>
      <point x="100" y="710"/>
      <point x="40" y="650"/>
      <point x="40" y="550" type="curve" smooth="yes"/>
      <point x="40" y="450"/>
      <point x="100" y="390"/>
    </contour>
    <contour>
      <point x="205" y="460" type="curve"/>
      <point x="175" y="460"/>
      <point x="145" y="490"/>
      <point x="145" y="550" type="curve" smooth="yes"/>
      <point x="145" y="610"/>
      <point x="175" y="640"/>
      <point x="205" y="640" type="curve"/>
      <point x="235" y="640"/>
      <point x="265" y="610"/>
      <point x="265" y="550" type="curve" smooth="yes"/>
      <point x="265" y="490"/>
      <point x="235" y="460"/>
    </contour>
  </outline>
</glyph>
<glyph name="threesuperior" format="2">
  <advance width="270"/>
  <unicode hex="00B3"/>
  <outline>
    <contour>
      <point x="110" y="395" type="curve" smooth="yes"/>
      <point x="195" y="395"/>
      <point x="240" y="415"/>
      <point x="240" y="485" type="curve" smooth="yes"/>
      <point x="240" y="530"/>
      <point x="210" y="555"/>
      <point x="185" y="560" type="curve"/>
      <point x="205" y="565"/>
      <point x="230" y="585"/>
      <point x="230" y="620" type="curve" smooth="yes"/>
      <point x="230" y="685"/>
      <point x="185" y="705"/>
      <point x="115" y="705" type="curve" smooth="yes"/>
      <point x="80" y="705"/>
      <point x="49" y="700"/>
      <point x="30" y="694" type="curve"/>
      <point x="30" y="645" type="line"/>
      <point x="104" y="645" type="line" smooth="yes"/>
      <point x="135" y="645"/>
      <point x="145" y="630"/>
      <point x="145" y="615" type="curve" smooth="yes"/>
      <point x="145" y="600"/>
      <point x="135" y="585"/>
      <point x="110" y="585" type="curve" smooth="yes"/>
      <point x="65" y="585" type="line"/>
      <point x="65" y="525" type="line"/>
      <point x="115" y="525" type="line" smooth="yes"/>
      <point x="140" y="525"/>
      <point x="155" y="510"/>
      <point x="155" y="490" type="curve" smooth="yes"/>
      <point x="155" y="470"/>
      <point x="140" y="455"/>
      <point x="110" y="455" type="curve" smooth="yes"/>
      <point x="30" y="455" type="line"/>
      <point x="30" y="406" type="line"/>
      <point x="50" y="400"/>
      <point x="80" y="395"/>
    </contour>
  </outline>
</glyph>
<glyph name="paragraph" format="2">
  <advance width="565"/>
  <unicode hex="00B6"/>
  <outline>
    <contour>
      <point x="225" y="-200" type="line"/>
      <point x="335" y="-200" type="line"/>
      <point x="335" y="620" type="line"/>
      <point x="375" y="620" type="line"/>
      <point x="375" y="-200" type="line"/>
      <point x="485" y="-200" type="line"/>
      <point x="485" y="620" type="line"/>
      <point x="545" y="620" type="line"/>
      <point x="545" y="700" type="line"/>
      <point x="225" y="700" type="line" smooth="yes"/>
      <point x="100" y="700"/>
      <point x="30" y="610"/>
      <point x="30" y="515" type="curve" smooth="yes"/>
      <point x="30" y="400"/>
      <point x="100" y="330"/>
      <point x="225" y="330" type="curve"/>
    </contour>
  </outline>
</glyph>
<glyph name="Aring" format="2">
  <advance width="540"/>
  <unicode hex="00C5"/>
  <outline>
    <contour>
      <point x="15" y="0" type="line"/>
      <point x="140" y="0" type="line"/>
      <point x="184" y="175" type="line"/>
      <point x="356" y="175" type="line"/>
      <point x="400" y="0" type="line"/>
      <point x="525" y="0" type="line"/>
      <point x="345" y="700" type="line"/>
      <point x="195" y="700" type="line"/>
    </contour>
    <contour>
      <point x="200" y="255" type="line"/>
      <point x="268" y="540" type="line"/>
      <point x="272" y="540" type="line"/>
      <point x="339" y="255" type="line"/>
    </contour>
    <contour>
      <point x="270" y="725" type="curve" smooth="yes"/>
      <point x="325" y="725"/>
      <point x="365" y="760"/>
      <point x="365" y="810" type="curve" smooth="yes"/>
      <point x="365" y="860"/>
      <point x="325" y="895"/>
      <point x="270" y="895" type="curve" smooth="yes"/>
      <point x="215" y="895"/>
      <point x="175" y="860"/>
      <point x="175" y="810" type="curve" smooth="yes"/>
      <point x="175" y="760"/>
      <point x="215" y="725"/>
    </contour>
    <contour>
      <point x="270" y="780" type="curve" smooth="yes"/>
      <point x="255" y="780"/>
      <point x="240" y="790"/>
      <point x="240" y="810" type="curve" smooth="yes"/>
      <point x="240" y="830"/>
      <point x="255" y="840"/>
      <point x="270" y="840" type="curve" smooth="yes"/>
      <point x="285" y="840"/>
      <point x="300" y="830"/>
      <point x="300" y="810" type="curve" smooth="yes"/>
      <point x="300" y="790"/>
      <point x="285" y="780"/>
    </contour>
  </outline>
</glyph>
<glyph name="AE" format="2">
  <advance width="755"/>
  <unicode hex="00C6"/>
  <outline>
    <contour>
      <point x="0" y="0" type="line"/>
      <point x="119" y="0" type="line"/>
      <point x="180" y="175" type="line"/>
      <point x="350" y="175" type="line"/>
      <point x="350" y="0" type="line"/>
      <point x="715" y="0" type="line"/>
      <point x="715" y="80" type="line"/>
      <point x="470" y="80" type="line"/>
      <point x="470" y="325" type="line"/>
      <point x="685" y="325" type="line"/>
      <point x="685" y="405" type="line"/>
      <point x="470" y="405" type="line"/>
      <point x="470" y="620" type="line"/>
      <point x="715" y="620" type="line"/>
      <point x="715" y="700" type="line"/>
      <point x="240" y="700" type="line"/>
    </contour>
    <contour>
      <point x="207" y="255" type="line"/>
      <point x="331" y="620" type="line"/>
      <point x="350" y="620" type="line"/>
      <point x="350" y="255" type="line"/>
    </contour>
  </outline>
</glyph>
<glyph name="Edieresis" format="2">
  <advance width="475"/>
  <unicode hex="00CB"/>
  <outline>
    <contour>
      <point x="70" y="0" type="line"/>
      <point x="435" y="0" type="line"/>
      <point x="435" y="80" type="line"/>
      <point x="190" y="80" type="line"/>
      <point x="190" y="325" type="line"/>
      <point x="405" y="325" type="line"/>
      <point x="405" y="405" type="line"/>
      <point x="190" y="405" type="line"/>
      <point x="190" y="620" type="line"/>
      <point x="435" y="620" type="line"/>
      <point x="435" y="700" type="line"/>
      <point x="70" y="700" type="line"/>
    </contour>
    <contour>
      <point x="115" y="760" type="line"/>
      <point x="225" y="760" type="line"/>
      <point x="225" y="880" type="line"/>
      <point x="115" y="880" type="line"/>
    </contour>
    <contour>
      <point x="275" y="760" type="line"/>
      <point x="385" y="760" type="line"/>
      <point x="385" y="880" type="line"/>
      <point x="275" y="880" type="line"/>
    </contour>
  </outline>
</glyph>
<glyph name="Icircumflex" format="2">
  <advance width="260"/>
  <unicode hex="00CE"/>
  <anchor x="130" y="0" name="bottom"/>
  <anchor x="234" y="10" name="ogonek"/>
  <anchor x="130" y="700" name="top"/>
  <anchor x="20" y="700" name="topleft"/>
  <outline>
    <contour>
      <point x="70" y="0" type="line"/>
      <point x="190" y="0" type="line"/>
      <point x="190" y="700" type="line"/>
      <point x="70" y="700" type="line"/>
    </contour>
    <contour>
      <point x="-5" y="750" type="line"/>
      <point x="71" y="750" type="line"/>
      <point x="127" y="820" type="line"/>
      <point x="183" y="750" type="line"/>
      <point x="260" y="750" type="line"/>
      <point x="180" y="880" type="line"/>
      <point x="75" y="880" type="line"/>
    </contour>
  </outline>
</glyph>
<glyph name="Eth" format="2">
  <advance width="560"/>
  <unicode hex="00D0"/>
  <outline>
    <contour>
      <point x="260" y="-10" type="curve" smooth="yes"/>
      <point x="425" y="-10"/>
      <point x="515" y="80"/>
      <point x="515" y="350" type="curve" smooth="yes"/>
      <point x="515" y="620"/>
      <point x="425" y="710"/>
      <point x="260" y="710" type="curve" smooth="yes"/>
      <point x="185" y="710"/>
      <point x="135" y="705"/>
      <point x="85" y="690" type="curve"/>
      <point x="85" y="395" type="line"/>
      <point x="10" y="395" type="line"/>
      <point x="10" y="315" type="line"/>
      <point x="85" y="315" type="line"/>
      <point x="85" y="10" type="line"/>
      <point x="135" y="-5"/>
      <point x="185" y="-10"/>
    </contour>
    <contour>
      <point x="205" y="65" type="line"/>
      <point x="205" y="315" type="line"/>
      <point x="310" y="315" type="line"/>
      <point x="310" y="395" type="line"/>
      <point x="205" y="395" type="line"/>
      <point x="205" y="635" type="line"/>
      <point x="260" y="635" type="line"/>
      <point x="340" y="635"/>
      <point x="395" y="575"/>
      <point x="395" y="350" type="curve" smooth="yes"/>
      <point x="395" y="125"/>
      <point x="340" y="65"/>
      <point x="260" y="65" type="curve"/>
    </contour>
  </outline>
</glyph>
<glyph name="Ocircumflex" format="2">
  <advance width="550"/>
  <unicode hex="00D4"/>
  <outline>
    <contour>
      <point x="275" y="-10" type="curve"/>
      <point x="415" y="-10"/>
      <point x="505" y="80"/>
      <point x="505" y="350" type="curve" smooth="yes"/>
      <point x="505" y="620"/>
      <point x="415" y="710"/>
      <point x="275" y="710" type="curve"/>
      <point x="135" y="710"/>
      <point x="45" y="620"/>
      <point x="45" y="350" type="curve"/>
      <point x="45" y="80"/>
      <point x="135" y="-10"/>
    </contour>
    <contour>
      <point x="275" y="60" type="curve" smooth="yes"/>
      <point x="220" y="60"/>
      <point x="165" y="120"/>
      <point x="165" y="350" type="curve"/>
      <point x="165" y="580"/>
      <point x="220" y="640"/>
      <point x="275" y="640" type="curve"/>
      <point x="330" y="640"/>
      <point x="385" y="580"/>
      <point x="385" y="350" type="curve" smooth="yes"/>
      <point x="385" y="120"/>
      <point x="330" y="60"/>
    </contour>
    <contour>
      <point x="145" y="760" type="line"/>
      <point x="221" y="760" type="line"/>
      <point x="277" y="830" type="line"/>
      <point x="333" y="760" type="line"/>
      <point x="410" y="760" type="line"/>
      <point x="330" y="890" type="line"/>
      <point x="225" y="890" type="line"/>
    </contour>
  </outline>
</glyph>
<glyph name="agrave" format="2">
  <advance width="475"/>
  <unicode hex="00E0"/>
  <outline>
    <contour>
      <point x="195" y="-10" type="curve" smooth="yes"/>
      <point x="250" y="-10"/>
      <point x="284" y="10"/>
      <point x="305" y="30" type="curve"/>
      <point x="310" y="30" type="line"/>
      <point x="325" y="0" type="line"/>
      <point x="410" y="0" type="line"/>
      <point x="410" y="340" type="line" smooth="yes"/>
      <point x="410" y="480"/>
      <point x="340" y="510"/>
      <point x="205" y="510" type="curve" smooth="yes"/>
      <point x="165" y="510"/>
      <point x="115" y="500"/>
      <point x="85" y="490" type="curve"/>
      <point x="85" y="440" type="line"/>
      <point x="185" y="440" type="line" smooth="yes"/>
      <point x="250" y="440"/>
      <point x="290" y="420"/>
      <point x="290" y="340" type="curve" smooth="yes"/>
      <point x="290" y="300" type="line"/>
      <point x="265" y="305"/>
      <point x="235" y="310"/>
      <point x="205" y="310" type="curve" smooth="yes"/>
      <point x="110" y="310"/>
      <point x="40" y="280"/>
      <point x="40" y="150" type="curve" smooth="yes"/>
      <point x="40" y="20"/>
      <point x="110" y="-10"/>
    </contour>
    <contour>
      <point x="235" y="60" type="curve" smooth="yes"/>
      <point x="200" y="60"/>
      <point x="160" y="80"/>
      <point x="160" y="150" type="curve" smooth="yes"/>
      <point x="160" y="220"/>
      <point x="200" y="240"/>
      <point x="235" y="240" type="curve" smooth="yes"/>
      <point x="290" y="240" type="line"/>
      <point x="290" y="80" type="line"/>
      <point x="280" y="70"/>
      <point x="260" y="60"/>
    </contour>
    <contour>
      <point x="216" y="560" type="line"/>
      <point x="291" y="560" type="line"/>
      <point x="256" y="690" type="line"/>
      <point x="141" y="690" type="line"/>
    </contour>
  </outline>
</glyph>
<glyph name="eogonek" format="2">
  <advance width="460"/>
  <unicode hex="0119"/>
  <outline>
    <contour>
      <point x="284" y="-160" type="curve" smooth="yes"/>
      <point x="329" y="-160"/>
      <point x="360" y="-145"/>
      <point x="360" y="-145" type="curve"/>
      <point x="360" y="-100" type="line"/>
      <point x="324" y="-100" type="line" smooth="yes"/>
      <point x="289" y="-100"/>
      <point x="270" y="-80"/>
      <point x="270" y="-45" type="curve" smooth="yes"/>
      <point x="270" y="-10" type="line"/>
      <point x="318" y="-9"/>
      <point x="366" y="0"/>
      <point x="395" y="10" type="curve"/>
      <point x="395" y="60" type="line"/>
      <point x="285" y="60" type="line" smooth="yes"/>
      <point x="200" y="60"/>
      <point x="160" y="100"/>
      <point x="160" y="215" type="curve"/>
      <point x="420" y="215" type="line"/>
      <point x="420" y="250" type="line" smooth="yes"/>
      <point x="420" y="440"/>
      <point x="350" y="510"/>
      <point x="230" y="510" type="curve" smooth="yes"/>
      <point x="110" y="510"/>
      <point x="40" y="440"/>
      <point x="40" y="250" type="curve" smooth="yes"/>
      <point x="40" y="82"/>
      <point x="95" y="8"/>
      <point x="214" y="-7" type="curve"/>
      <point x="207" y="-18"/>
      <point x="194" y="-44"/>
      <point x="194" y="-80" type="curve" smooth="yes"/>
      <point x="194" y="-125"/>
      <point x="229" y="-160"/>
    </contour>
    <contour>
      <point x="160" y="285" type="line"/>
      <point x="160" y="415"/>
      <point x="190" y="445"/>
      <point x="230" y="445" type="curve" smooth="yes"/>
      <point x="270" y="445"/>
      <point x="300" y="415"/>
      <point x="300" y="285" type="curve"/>
    </contour>
  </outline>
</glyph>
<glyph name="ij" format="2">
  <advance width="490"/>
  <unicode hex="0133"/>
  <outline>
    <contour>
      <point x="265" y="-210" type="curve" smooth="yes"/>
      <point x="350" y="-210"/>
      <point x="420" y="-180"/>
      <point x="420" y="-40" type="curve"/>
      <point x="420" y="500" type="line"/>
      <point x="70" y="500" type="line"/>
      <point x="70" y="0" type="line"/>
      <point x="190" y="0" type="line"/>
      <point x="190" y="425" type="line"/>
      <point x="300" y="425" type="line"/>
      <point x="300" y="-40" type="line"/>
      <point x="300" y="-110"/>
      <point x="270" y="-140"/>
      <point x="235" y="-140" type="curve"/>
      <point x="165" y="-140" type="line"/>
      <point x="165" y="-190" type="line"/>
      <point x="190" y="-200"/>
      <point x="225" y="-210"/>
    </contour>
    <contour>
      <point x="70" y="560" type="line"/>
      <point x="190" y="560" type="line"/>
      <point x="190" y="680" type="line"/>
      <point x="70" y="680" type="line"/>
    </contour>
    <contour>
      <point x="300" y="560" type="line"/>
      <point x="420" y="560" type="line"/>
      <point x="420" y="680" type="line"/>
      <point x="300" y="680" type="line"/>
    </contour>
  </outline>
</glyph>
<glyph name="sacute" format="2">
  <advance width="415"/>
  <unicode hex="015B"/>
  <outline>
    <contour>
      <point x="170" y="-10" type="curve" smooth="yes"/>
      <point x="315" y="-10"/>
      <point x="385" y="20"/>
      <point x="385" y="140" type="curve" smooth="yes"/>
      <point x="385" y="310"/>
      <point x="150" y="275"/>
      <point x="150" y="380" type="curve" smooth="yes"/>
      <point x="150" y="420"/>
      <point x="190" y="440"/>
      <point x="245" y="440" type="curve" smooth="yes"/>
      <point x="355" y="440" type="line"/>
      <point x="355" y="490" type="line"/>
      <point x="325" y="500"/>
      <point x="275" y="510"/>
      <point x="225" y="510" type="curve" smooth="yes"/>
      <point x="100" y="510"/>
      <point x="30" y="480"/>
      <point x="30" y="370" type="curve" smooth="yes"/>
      <point x="30" y="200"/>
      <point x="265" y="235"/>
      <point x="265" y="130" type="curve" smooth="yes"/>
      <point x="265" y="80"/>
      <point x="225" y="60"/>
      <point x="150" y="60" type="curve" smooth="yes"/>
      <point x="40" y="60" type="line"/>
      <point x="40" y="10" type="line"/>
      <point x="70" y="0"/>
      <point x="120" y="-10"/>
    </contour>
    <contour>
      <point x="165" y="560" type="line"/>
      <point x="240" y="560" type="line"/>
      <point x="315" y="690" type="line"/>
      <point x="200" y="690" type="line"/>
    </contour>
  </outline>
</glyph>
<glyph name="Uogonek" format="2">
  <advance width="550"/>
  <unicode hex="0172"/>
  <outline>
    <contour>
      <point x="314" y="-160" type="curve" smooth="yes"/>
      <point x="359" y="-160"/>
      <point x="390" y="-145"/>
      <point x="390" y="-145" type="curve"/>
      <point x="390" y="-100" type="line"/>
      <point x="354" y="-100" type="line" smooth="yes"/>
      <point x="319" y="-100"/>
      <point x="300" y="-80"/>
      <point x="300" y="-45" type="curve" smooth="yes"/>
      <point x="300" y="-9" type="line"/>
      <point x="428" y="-1"/>
      <point x="490" y="70"/>
      <point x="490" y="240" type="curve" smooth="yes"/>
      <point x="490" y="700" type="line"/>
      <point x="370" y="700" type="line"/>
      <point x="370" y="240" type="line" smooth="yes"/>
      <point x="370" y="100"/>
      <point x="330" y="60"/>
      <point x="275" y="60" type="curve" smooth="yes"/>
      <point x="220" y="60"/>
      <point x="180" y="100"/>
      <point x="180" y="240" type="curve" smooth="yes"/>
      <point x="180" y="700" type="line"/>
      <point x="60" y="700" type="line"/>
      <point x="60" y="240" type="line" smooth="yes"/>
      <point x="60" y="73"/>
      <point x="120" y="1"/>
      <point x="243" y="-9" type="curve"/>
      <point x="236" y="-21"/>
      <point x="224" y="-46"/>
      <point x="224" y="-80" type="curve" smooth="yes"/>
      <point x="224" y="-125"/>
      <point x="259" y="-160"/>
    </contour>
  </outline>
</glyph>
<glyph name="Dje-cy" format="2">
  <advance width="575"/>
  <unicode hex="0402"/>
  <outline>
    <contour>
      <point x="380" y="-10" type="curve" smooth="yes"/>
      <point x="475" y="-10"/>
      <point x="535" y="50"/>
      <point x="535" y="160" type="curve"/>
      <point x="535" y="245" type="line" smooth="yes"/>
      <point x="535" y="370"/>
      <point x="465" y="440"/>
      <point x="335" y="440" type="curve" smooth="yes"/>
      <point x="310" y="440"/>
      <point x="265" y="435"/>
      <point x="240" y="430" type="curve"/>
      <point x="240" y="620" type="line"/>
      <point x="380" y="620" type="line"/>
      <point x="380" y="700" type="line"/>
      <point x="0" y="700" type="line"/>
      <point x="0" y="620" type="line"/>
      <point x="120" y="620" type="line"/>
      <point x="120" y="0" type="line"/>
      <point x="240" y="0" type="line"/>
      <point x="240" y="360" type="line"/>
      <point x="295" y="360" type="line" smooth="yes"/>
      <point x="375" y="360"/>
      <point x="415" y="320"/>
      <point x="415" y="245" type="curve" smooth="yes"/>
      <point x="415" y="160" type="line"/>
      <point x="415" y="90"/>
      <point x="385" y="60"/>
      <point x="350" y="60" type="curve" smooth="yes"/>
      <point x="300" y="60" type="line"/>
      <point x="300" y="10" type="line"/>
      <point x="320" y="-5"/>
      <point x="350" y="-10"/>
    </contour>
  </outline>
</glyph>
<glyph name="Dze-cy" format="2">
  <advance width="465"/>
  <unicode hex="0405"/>
  <outline>
    <contour>
      <point x="195" y="-10" type="curve" smooth="yes"/>
      <point x="365" y="-10"/>
      <point x="435" y="60"/>
      <point x="435" y="180" type="curve" smooth="yes"/>
      <point x="435" y="425"/>
      <point x="150" y="355"/>
      <point x="150" y="530" type="curve" smooth="yes"/>
      <point x="150" y="595"/>
      <point x="190" y="635"/>
      <point x="255" y="635" type="curve" smooth="yes"/>
      <point x="395" y="635" type="line"/>
      <point x="395" y="690" type="line"/>
      <point x="365" y="700"/>
      <point x="305" y="710"/>
      <point x="235" y="710" type="curve" smooth="yes"/>
      <point x="100" y="710"/>
      <point x="30" y="640"/>
      <point x="30" y="530" type="curve" smooth="yes"/>
      <point x="30" y="275"/>
      <point x="315" y="345"/>
      <point x="315" y="180" type="curve" smooth="yes"/>
      <point x="315" y="105"/>
      <point x="275" y="65"/>
      <point x="175" y="65" type="curve" smooth="yes"/>
      <point x="35" y="65" type="line"/>
      <point x="35" y="10" type="line"/>
      <point x="65" y="0"/>
      <point x="125" y="-10"/>
    </contour>
  </outline>
</glyph>
<glyph name="Nje-cy" format="2">
  <advance width="815"/>
  <unicode hex="040A"/>
  <outline>
    <contour>
      <point x="545" y="-10" type="curve" smooth="yes"/>
      <point x="710" y="-10"/>
      <point x="780" y="60"/>
      <point x="780" y="195" type="curve" smooth="yes"/>
      <point x="780" y="340"/>
      <point x="710" y="410"/>
      <point x="575" y="410" type="curve" smooth="yes"/>
      <point x="560" y="410"/>
      <point x="515" y="405"/>
      <point x="490" y="400" type="curve"/>
      <point x="490" y="700" type="line"/>
      <point x="370" y="700" type="line"/>
      <point x="370" y="410" type="line"/>
      <point x="190" y="410" type="line"/>
      <point x="190" y="700" type="line"/>
      <point x="70" y="700" type="line"/>
      <point x="70" y="0" type="line"/>
      <point x="190" y="0" type="line"/>
      <point x="190" y="330" type="line"/>
      <point x="370" y="330" type="line"/>
      <point x="370" y="10" type="line"/>
      <point x="420" y="-5"/>
      <point x="470" y="-10"/>
    </contour>
    <contour>
      <point x="490" y="65" type="line"/>
      <point x="490" y="330" type="line"/>
      <point x="545" y="330" type="line" smooth="yes"/>
      <point x="620" y="330"/>
      <point x="660" y="295"/>
      <point x="660" y="195" type="curve" smooth="yes"/>
      <point x="660" y="105"/>
      <point x="620" y="65"/>
      <point x="545" y="65" type="curve" smooth="yes"/>
    </contour>
  </outline>
</glyph>
<glyph name="Ge-cy" format="2">
  <advance width="435"/>
  <unicode hex="0413"/>
  <anchor x="70" y="0" name="bottomright"/>
  <anchor x="168" y="355" name="center"/>
  <anchor x="268" y="700" name="top"/>
  <outline>
    <contour>
      <point x="70" y="0" type="line"/>
      <point x="190" y="0" type="line"/>
      <point x="190" y="620" type="line"/>
      <point x="415" y="620" type="line"/>
      <point x="415" y="700" type="line"/>
      <point x="70" y="700" type="line"/>
    </contour>
  </outline>
</glyph>
<glyph name="Zhe-cy" format="2">
  <advance width="770"/>
  <unicode hex="0416"/>
  <anchor x="750" y="0" name="bottomright"/>
  <anchor x="385" y="700" name="top"/>
  <outline>
    <contour>
      <point x="75" y="-10" type="curve" smooth="yes"/>
      <point x="150" y="-10"/>
      <point x="187" y="30"/>
      <point x="205" y="110" type="curve" smooth="yes"/>
      <point x="235" y="240" type="line" smooth="yes"/>
      <point x="250" y="305"/>
      <point x="275" y="325"/>
      <point x="310" y="325" type="curve" smooth="yes"/>
      <point x="325" y="325" type="line"/>
      <point x="325" y="0" type="line"/>
      <point x="445" y="0" type="line"/>
      <point x="445" y="325" type="line"/>
      <point x="460" y="325" type="line" smooth="yes"/>
      <point x="495" y="325"/>
      <point x="520" y="305"/>
      <point x="535" y="240" type="curve" smooth="yes"/>
      <point x="565" y="110" type="line" smooth="yes"/>
      <point x="583" y="30"/>
      <point x="620" y="-10"/>
      <point x="695" y="-10" type="curve" smooth="yes"/>
      <point x="740" y="-10"/>
      <point x="765" y="0"/>
      <point x="765" y="0" type="curve"/>
      <point x="765" y="55" type="line"/>
      <point x="720" y="55"/>
      <point x="697" y="80"/>
      <point x="690" y="110" type="curve" smooth="yes"/>
      <point x="660" y="240" type="line" smooth="yes"/>
      <point x="642" y="320"/>
      <point x="600" y="350"/>
      <point x="560" y="363" type="curve"/>
      <point x="560" y="367" type="line"/>
      <point x="600" y="380"/>
      <point x="626" y="410"/>
      <point x="650" y="490" type="curve" smooth="yes"/>
      <point x="680" y="590" type="line" smooth="yes"/>
      <point x="690" y="625"/>
      <point x="710" y="645"/>
      <point x="755" y="645" type="curve"/>
      <point x="755" y="700" type="line"/>
      <point x="755" y="700"/>
      <point x="730" y="710"/>
      <point x="685" y="710" type="curve" smooth="yes"/>
      <point x="610" y="710"/>
      <point x="579" y="670"/>
      <point x="555" y="590" type="curve" smooth="yes"/>
      <point x="525" y="490" type="line" smooth="yes"/>
      <point x="506" y="425"/>
      <point x="485" y="405"/>
      <point x="460" y="405" type="curve" smooth="yes"/>
      <point x="445" y="405" type="line"/>
      <point x="445" y="700" type="line"/>
      <point x="325" y="700" type="line"/>
      <point x="325" y="405" type="line"/>
      <point x="310" y="405" type="line" smooth="yes"/>
      <point x="285" y="405"/>
      <point x="264" y="425"/>
      <point x="245" y="490" type="curve" smooth="yes"/>
      <point x="215" y="590" type="line" smooth="yes"/>
      <point x="191" y="670"/>
      <point x="160" y="710"/>
      <point x="85" y="710" type="curve" smooth="yes"/>
      <point x="40" y="710"/>
      <point x="15" y="700"/>
      <point x="15" y="700" type="curve"/>
      <point x="15" y="645" type="line"/>
      <point x="60" y="645"/>
      <point x="80" y="625"/>
      <point x="90" y="590" type="curve" smooth="yes"/>
      <point x="120" y="490" type="line" smooth="yes"/>
      <point x="144" y="410"/>
      <point x="170" y="380"/>
      <point x="210" y="367" type="curve"/>
      <point x="210" y="363" type="line"/>
      <point x="170" y="350"/>
      <point x="128" y="320"/>
      <point x="110" y="240" type="curve" smooth="yes"/>
      <point x="80" y="110" type="line" smooth="yes"/>
      <point x="73" y="80"/>
      <point x="50" y="55"/>
      <point x="5" y="55" type="curve"/>
      <point x="5" y="0" type="line"/>
      <point x="5" y="0"/>
      <point x="30" y="-10"/>
    </contour>
  </outline>
</glyph>
<glyph name="Ze-cy" format="2">
  <advance width="450"/>
  <unicode hex="0417"/>
  <anchor x="162" y="0" name="bottom"/>
  <anchor x="174" y="700" name="top"/>
  <outline>
    <contour>
      <point x="165" y="-10" type="curve" smooth="yes"/>
      <point x="345" y="-10"/>
      <point x="415" y="60"/>
      <point x="415" y="195" type="curve" smooth="yes"/>
      <point x="415" y="275"/>
      <point x="370" y="345"/>
      <point x="290" y="368" type="curve"/>
      <point x="290" y="372" type="line"/>
      <point x="350" y="400"/>
      <point x="395" y="445"/>
      <point x="395" y="530" type="curve" smooth="yes"/>
      <point x="395" y="640"/>
      <point x="325" y="710"/>
      <point x="165" y="710" type="curve" smooth="yes"/>
      <point x="115" y="710"/>
      <point x="55" y="700"/>
      <point x="25" y="690" type="curve"/>
      <point x="25" y="635" type="line"/>
      <point x="155" y="635" type="line" smooth="yes"/>
      <point x="230" y="635"/>
      <point x="270" y="595"/>
      <point x="270" y="530" type="curve" smooth="yes"/>
      <point x="270" y="445"/>
      <point x="230" y="405"/>
      <point x="155" y="405" type="curve" smooth="yes"/>
      <point x="85" y="405" type="line"/>
      <point x="85" y="325" type="line"/>
      <point x="165" y="325" type="line" smooth="yes"/>
      <point x="250" y="325"/>
      <point x="290" y="285"/>
      <point x="290" y="195" type="curve" smooth="yes"/>
      <point x="290" y="105"/>
      <point x="250" y="65"/>
      <point x="165" y="65" type="curve" smooth="yes"/>
      <point x="15" y="65" type="line"/>
      <point x="15" y="10" type="line"/>
      <point x="45" y="0"/>
      <point x="105" y="-10"/>
    </contour>
  </outline>
</glyph>
<glyph name="Ef-cy" format="2">
  <advance width="710"/>
  <unicode hex="0424"/>
  <outline>
    <contour>
      <point x="295" y="-20" type="line"/>
      <point x="415" y="-20" type="line"/>
      <point x="415" y="45" type="line"/>
      <point x="580" y="65"/>
      <point x="685" y="170"/>
      <point x="685" y="350" type="curve" smooth="yes"/>
      <point x="685" y="530"/>
      <point x="580" y="635"/>
      <point x="415" y="655" type="curve"/>
      <point x="415" y="720" type="line"/>
      <point x="295" y="720" type="line"/>
      <point x="295" y="655" type="line"/>
      <point x="130" y="635"/>
      <point x="25" y="530"/>
      <point x="25" y="350" type="curve" smooth="yes"/>
      <point x="25" y="170"/>
      <point x="130" y="65"/>
      <point x="295" y="45" type="curve"/>
    </contour>
    <contour>
      <point x="295" y="120" type="line"/>
      <point x="225" y="125"/>
      <point x="145" y="205"/>
      <point x="145" y="350" type="curve" smooth="yes"/>
      <point x="145" y="495"/>
      <point x="225" y="575"/>
      <point x="295" y="580" type="curve"/>
    </contour>
    <contour>
      <point x="415" y="120" type="curve"/>
      <point x="415" y="580" type="line"/>
      <point x="485" y="575"/>
      <point x="565" y="495"/>
      <point x="565" y="350" type="curve" smooth="yes"/>
      <point x="565" y="205"/>
      <point x="485" y="125"/>
    </contour>
  </outline>
</glyph>
<glyph name="Tse-cy" format="2">
  <advance width="570"/>
  <unicode hex="0426"/>
  <outline>
    <contour>
      <point x="470" y="-150" type="curve"/>
      <point x="545" y="-150" type="line"/>
      <point x="545" y="80" type="line"/>
      <point x="480" y="80" type="line"/>
      <point x="480" y="700" type="line"/>
      <point x="360" y="700" type="line"/>
      <point x="360" y="80" type="line"/>
      <point x="190" y="80" type="line"/>
      <point x="190" y="700" type="line"/>
      <point x="70" y="700" type="line"/>
      <point x="70" y="0" type="line"/>
      <point x="430" y="0" type="line"/>
      <point x="435" y="-60"/>
      <point x="450" y="-110"/>
    </contour>
  </outline>
</glyph>
<glyph name="Che-cy" format="2">
  <advance width="535"/>
  <unicode hex="0427"/>
  <anchor x="345" y="0" name="bottomright"/>
  <anchor x="268" y="290" name="center"/>
  <anchor x="268" y="700" name="top"/>
  <outline>
    <contour>
      <point x="345" y="0" type="line"/>
      <point x="465" y="0" type="line"/>
      <point x="465" y="700" type="line"/>
      <point x="345" y="700" type="line"/>
      <point x="345" y="330" type="line"/>
      <point x="290" y="330" type="line" smooth="yes"/>
      <point x="210" y="330"/>
      <point x="170" y="370"/>
      <point x="170" y="455" type="curve" smooth="yes"/>
      <point x="170" y="700" type="line"/>
      <point x="50" y="700" type="line"/>
      <point x="50" y="455" type="line" smooth="yes"/>
      <point x="50" y="320"/>
      <point x="120" y="250"/>
      <point x="250" y="250" type="curve" smooth="yes"/>
      <point x="275" y="250"/>
      <point x="320" y="255"/>
      <point x="345" y="260" type="curve"/>
    </contour>
  </outline>
</glyph>
<glyph name="Sha-cy" format="2">
  <advance width="790"/>
  <unicode hex="0428"/>
  <outline>
    <contour>
      <point x="70" y="0" type="line"/>
      <point x="720" y="0" type="line"/>
      <point x="720" y="700" type="line"/>
      <point x="600" y="700" type="line"/>
      <point x="600" y="80" type="line"/>
      <point x="455" y="80" type="line"/>
      <point x="455" y="700" type="line"/>
      <point x="335" y="700" type="line"/>
      <point x="335" y="80" type="line"/>
      <point x="190" y="80" type="line"/>
      <point x="190" y="700" type="line"/>
      <point x="70" y="700" type="line"/>
    </contour>
  </outline>
</glyph>
<glyph name="Yeru-cy" format="2">
  <advance width="735"/>
  <unicode hex="042B"/>
  <anchor x="368" y="700" name="top"/>
  <outline>
    <contour>
      <point x="245" y="-10" type="curve" smooth="yes"/>
      <point x="405" y="-10"/>
      <point x="475" y="60"/>
      <point x="475" y="205" type="curve" smooth="yes"/>
      <point x="475" y="360"/>
      <point x="405" y="430"/>
      <point x="275" y="430" type="curve" smooth="yes"/>
      <point x="260" y="430"/>
      <point x="215" y="425"/>
      <point x="190" y="420" type="curve"/>
      <point x="190" y="700" type="line"/>
      <point x="70" y="700" type="line"/>
      <point x="70" y="10" type="line"/>
      <point x="120" y="-5"/>
      <point x="170" y="-10"/>
    </contour>
    <contour>
      <point x="190" y="65" type="line"/>
      <point x="190" y="350" type="line"/>
      <point x="245" y="350" type="line"/>
      <point x="315" y="350"/>
      <point x="355" y="315"/>
      <point x="355" y="205" type="curve" smooth="yes"/>
      <point x="355" y="105"/>
      <point x="315" y="65"/>
      <point x="245" y="65" type="curve" smooth="yes"/>
    </contour>
    <contour>
      <point x="545" y="0" type="line"/>
      <point x="665" y="0" type="line"/>
      <point x="665" y="700" type="line"/>
      <point x="545" y="700" type="line"/>
    </contour>
  </outline>
</glyph>
<glyph name="Iu-cy" format="2">
  <advance width="745"/>
  <unicode hex="042E"/>
  <outline>
    <contour>
      <point x="475" y="-10" type="curve" smooth="yes"/>
      <point x="610" y="-10"/>
      <point x="700" y="80"/>
      <point x="700" y="350" type="curve" smooth="yes"/>
      <point x="700" y="620"/>
      <point x="610" y="710"/>
      <point x="475" y="710" type="curve" smooth="yes"/>
      <point x="350" y="710"/>
      <point x="260" y="630"/>
      <point x="251" y="395" type="curve"/>
      <point x="190" y="395" type="line"/>
      <point x="190" y="700" type="line"/>
      <point x="70" y="700" type="line"/>
      <point x="70" y="0" type="line"/>
      <point x="190" y="0" type="line"/>
      <point x="190" y="315" type="line"/>
      <point x="250" y="315" type="line"/>
      <point x="260" y="70"/>
      <point x="345" y="-10"/>
    </contour>
    <contour>
      <point x="475" y="60" type="curve" smooth="yes"/>
      <point x="425" y="60"/>
      <point x="370" y="120"/>
      <point x="370" y="350" type="curve" smooth="yes"/>
      <point x="370" y="580"/>
      <point x="425" y="640"/>
      <point x="475" y="640" type="curve" smooth="yes"/>
      <point x="525" y="640"/>
      <point x="580" y="580"/>
      <point x="580" y="350" type="curve" smooth="yes"/>
      <point x="580" y="120"/>
      <point x="525" y="60"/>
    </contour>
  </outline>
</glyph>
<glyph name="be-cy" format="2">
  <advance width="495"/>
  <unicode hex="0431"/>
  <outline>
    <contour>
      <point x="250" y="-10" type="curve" smooth="yes"/>
      <point x="380" y="-10"/>
      <point x="450" y="60"/>
      <point x="450" y="235" type="curve" smooth="yes"/>
      <point x="450" y="410"/>
      <point x="380" y="480"/>
      <point x="260" y="480" type="curve" smooth="yes"/>
      <point x="220" y="480"/>
      <point x="190" y="470"/>
      <point x="170" y="455" type="curve"/>
      <point x="170" y="575"/>
      <point x="210" y="615"/>
      <point x="300" y="625" type="curve" smooth="yes"/>
      <point x="355" y="631"/>
      <point x="405" y="645"/>
      <point x="440" y="660" type="curve"/>
      <point x="435" y="710" type="line"/>
      <point x="315" y="705" type="line" smooth="yes"/>
      <point x="120" y="697"/>
      <point x="50" y="625"/>
      <point x="50" y="400" type="curve" smooth="yes"/>
      <point x="50" y="235" type="line" smooth="yes"/>
      <point x="50" y="60"/>
      <point x="120" y="-10"/>
    </contour>
    <contour>
      <point x="250" y="55" type="curve" smooth="yes"/>
      <point x="210" y="55"/>
      <point x="170" y="95"/>
      <point x="170" y="235" type="curve" smooth="yes"/>
      <point x="170" y="390" type="line"/>
      <point x="180" y="400"/>
      <point x="200" y="410"/>
      <point x="230" y="410" type="curve" smooth="yes"/>
      <point x="290" y="410"/>
      <point x="330" y="370"/>
      <point x="330" y="235" type="curve" smooth="yes"/>
      <point x="330" y="95"/>
      <point x="290" y="55"/>
    </contour>
  </outline>
</glyph>
<glyph name="de-cy" format="2">
  <advance width="530"/>
  <unicode hex="0434"/>
  <outline>
    <contour>
      <point x="10" y="-145" type="line"/>
      <point x="85" y="-145" type="line"/>
      <point x="105" y="-110"/>
      <point x="120" y="-60"/>
      <point x="125" y="0" type="curve"/>
      <point x="390" y="0" type="line"/>
      <point x="395" y="-60"/>
      <point x="410" y="-110"/>
      <point x="430" y="-145" type="curve"/>
      <point x="505" y="-145" type="line"/>
      <point x="505" y="75" type="line"/>
      <point x="445" y="75" type="line"/>
      <point x="445" y="500" type="line"/>
      <point x="115" y="500" type="line"/>
      <point x="100" y="210" type="line" smooth="yes"/>
      <point x="96" y="140"/>
      <point x="75" y="100"/>
      <point x="55" y="75" type="curve"/>
      <point x="10" y="75" type="line"/>
    </contour>
    <contour>
      <point x="175" y="75" type="line"/>
      <point x="195" y="100"/>
      <point x="216" y="140"/>
      <point x="220" y="210" type="curve" smooth="yes"/>
      <point x="231" y="425" type="line"/>
      <point x="325" y="425" type="line"/>
      <point x="325" y="75" type="line"/>
    </contour>
  </outline>
</glyph>
<glyph name="ze-cy" format="2">
  <advance width="405"/>
  <unicode hex="0437"/>
  <anchor x="168" y="0" name="bottom"/>
  <anchor x="159" y="500" name="top"/>
  <outline>
    <contour>
      <point x="145" y="-10" type="curve" smooth="yes"/>
      <point x="300" y="-10"/>
      <point x="370" y="20"/>
      <point x="370" y="140" type="curve" smooth="yes"/>
      <point x="370" y="215"/>
      <point x="315" y="250"/>
      <point x="270" y="263" type="curve"/>
      <point x="270" y="267" type="line"/>
      <point x="315" y="280"/>
      <point x="360" y="305"/>
      <point x="360" y="375" type="curve"/>
      <point x="360" y="480"/>
      <point x="290" y="510"/>
      <point x="155" y="510" type="curve" smooth="yes"/>
      <point x="105" y="510"/>
      <point x="55" y="500"/>
      <point x="25" y="490" type="curve"/>
      <point x="25" y="440" type="line"/>
      <point x="135" y="440" type="line" smooth="yes"/>
      <point x="195" y="440"/>
      <point x="235" y="420"/>
      <point x="235" y="370" type="curve" smooth="yes"/>
      <point x="235" y="315"/>
      <point x="195" y="295"/>
      <point x="155" y="295" type="curve" smooth="yes"/>
      <point x="80" y="295" type="line"/>
      <point x="80" y="225" type="line"/>
      <point x="165" y="225" type="line" smooth="yes"/>
      <point x="205" y="225"/>
      <point x="245" y="205"/>
      <point x="245" y="145" type="curve" smooth="yes"/>
      <point x="245" y="80"/>
      <point x="205" y="60"/>
      <point x="145" y="60" type="curve" smooth="yes"/>
      <point x="15" y="60" type="line"/>
      <point x="15" y="10" type="line"/>
      <point x="45" y="0"/>
      <point x="95" y="-10"/>
    </contour>
  </outline>
</glyph>
<glyph name="er-cy" format="2">
  <advance width="490"/>
  <unicode hex="0440"/>
  <outline>
    <contour>
      <point x="65" y="-200" type="line"/>
      <point x="185" y="-200" type="line"/>
      <point x="185" y="15" type="line"/>
      <point x="206" y="0"/>
      <point x="235" y="-10"/>
      <point x="270" y="-10" type="curve" smooth="yes"/>
      <point x="380" y="-10"/>
      <point x="450" y="60"/>
      <point x="450" y="250" type="curve" smooth="yes"/>
      <point x="450" y="440"/>
      <point x="380" y="510"/>
      <point x="280" y="510" type="curve" smooth="yes"/>
      <point x="225" y="510"/>
      <point x="191" y="490"/>
      <point x="170" y="470" type="curve"/>
      <point x="165" y="470" type="line"/>
      <point x="150" y="500" type="line"/>
      <point x="65" y="500" type="line"/>
    </contour>
    <contour>
      <point x="240" y="60" type="curve" smooth="yes"/>
      <point x="215" y="60"/>
      <point x="195" y="70"/>
      <point x="185" y="80" type="curve"/>
      <point x="185" y="420" type="line"/>
      <point x="200" y="430"/>
      <point x="215" y="440"/>
      <point x="240" y="440" type="curve" smooth="yes"/>
      <point x="290" y="440"/>
      <point x="330" y="400"/>
      <point x="330" y="250" type="curve" smooth="yes"/>
      <point x="330" y="100"/>
      <point x="290" y="60"/>
    </contour>
  </outline>
</glyph>
<glyph name="te-cy" format="2">
  <advance width="390"/>
  <unicode hex="0442"/>
  <outline>
    <contour>
      <point x="135" y="0" type="line"/>
      <point x="255" y="0" type="line"/>
      <point x="255" y="425" type="line"/>
      <point x="380" y="425" type="line"/>
      <point x="380" y="500" type="line"/>
      <point x="10" y="500" type="line"/>
      <point x="10" y="425" type="line"/>
      <point x="135" y="425" type="line"/>
    </contour>
  </outline>
</glyph>
<glyph name="tse-cy" format="2">
  <advance width="520"/>
  <unicode hex="0446"/>
  <outline>
    <contour>
      <point x="420" y="-145" type="curve"/>
      <point x="495" y="-145" type="line"/>
      <point x="495" y="75" type="line"/>
      <point x="435" y="75" type="line"/>
      <point x="435" y="500" type="line"/>
      <point x="315" y="500" type="line"/>
      <point x="315" y="75" type="line"/>
      <point x="185" y="75" type="line"/>
      <point x="185" y="500" type="line"/>
      <point x="65" y="500" type="line"/>
      <point x="65" y="0" type="line"/>
      <point x="380" y="0" type="line"/>
      <point x="385" y="-60"/>
      <point x="400" y="-110"/>
    </contour>
  </outline>
</glyph>
<glyph name="shcha-cy" format="2">
  <advance width="730"/>
  <unicode hex="0449"/>
  <outline>
    <contour>
      <point x="630" y="-145" type="curve"/>
      <point x="705" y="-145" type="line"/>
      <point x="705" y="75" type="line"/>
      <point x="645" y="75" type="line"/>
      <point x="645" y="500" type="line"/>
      <point x="525" y="500" type="line"/>
      <point x="525" y="75" type="line"/>
      <point x="415" y="75" type="line"/>
      <point x="415" y="500" type="line"/>
      <point x="295" y="500" type="line"/>
      <point x="295" y="75" type="line"/>
      <point x="185" y="75" type="line"/>
      <point x="185" y="500" type="line"/>
      <point x="65" y="500" type="line"/>
      <point x="65" y="0" type="line"/>
      <point x="590" y="0" type="line"/>
      <point x="595" y="-60"/>
      <point x="610" y="-110"/>
    </contour>
  </outline>
</glyph>
<glyph name="ereversed-cy" format="2">
  <advance width="395"/>
  <unicode hex="044D"/>
  <outline>
    <contour>
      <point x="145" y="-10" type="curve" smooth="yes"/>
      <point x="285" y="-10"/>
      <point x="355" y="60"/>
      <point x="355" y="250" type="curve" smooth="yes"/>
      <point x="355" y="440"/>
      <point x="285" y="510"/>
      <point x="155" y="510" type="curve" smooth="yes"/>
      <point x="105" y="510"/>
      <point x="55" y="500"/>
      <point x="25" y="490" type="curve"/>
      <point x="25" y="440" type="line"/>
      <point x="135" y="440" type="line" smooth="yes"/>
      <point x="195" y="440"/>
      <point x="230" y="405"/>
      <point x="235" y="295" type="curve"/>
      <point x="85" y="295" type="line"/>
      <point x="85" y="220" type="line"/>
      <point x="235" y="220" type="line"/>
      <point x="230" y="95"/>
      <point x="195" y="60"/>
      <point x="125" y="60" type="curve" smooth="yes"/>
      <point x="15" y="60" type="line"/>
      <point x="15" y="10" type="line"/>
      <point x="45" y="0"/>
      <point x="95" y="-10"/>
    </contour>
  </outline>
</glyph>
<glyph name="iu-cy" format="2">
  <advance width="665"/>
  <unicode hex="044E"/>
  <outline>
    <contour>
      <point x="430" y="-10" type="curve" smooth="yes"/>
      <point x="555" y="-10"/>
      <point x="625" y="60"/>
      <point x="625" y="250" type="curve" smooth="yes"/>
      <point x="625" y="440"/>
      <point x="555" y="510"/>
      <point x="430" y="510" type="curve" smooth="yes"/>
      <point x="315" y="510"/>
      <point x="247" y="451"/>
      <point x="236" y="295" type="curve"/>
      <point x="185" y="295" type="line"/>
      <point x="185" y="500" type="line"/>
      <point x="65" y="500" type="line"/>
      <point x="65" y="0" type="line"/>
      <point x="185" y="0" type="line"/>
      <point x="185" y="215" type="line"/>
      <point x="236" y="215" type="line"/>
      <point x="244" y="51"/>
      <point x="313" y="-10"/>
    </contour>
    <contour>
      <point x="430" y="55" type="curve" smooth="yes"/>
      <point x="390" y="55"/>
      <point x="355" y="95"/>
      <point x="355" y="250" type="curve" smooth="yes"/>
      <point x="355" y="405"/>
      <point x="390" y="445"/>
      <point x="430" y="445" type="curve" smooth="yes"/>
      <point x="470" y="445"/>
      <point x="505" y="405"/>
      <point x="505" y="250" type="curve" smooth="yes"/>
      <point x="505" y="95"/>
      <point x="470" y="55"/>
    </contour>
  </outline>
</glyph>
<glyph name="lje-cy" format="2">
  <advance width="720"/>
  <unicode hex="0459"/>
  <outline>
    <contour>
      <point x="65" y="-10" type="curve" smooth="yes"/>
      <point x="135" y="-10"/>
      <point x="188" y="45"/>
      <point x="195" y="160" type="curve" smooth="yes"/>
      <point x="211" y="425" type="line"/>
      <point x="310" y="425" type="line"/>
      <point x="310" y="10" type="line"/>
      <point x="360" y="-5"/>
      <point x="410" y="-10"/>
      <point x="485" y="-10" type="curve" smooth="yes"/>
      <point x="615" y="-10"/>
      <point x="685" y="20"/>
      <point x="685" y="155" type="curve" smooth="yes"/>
      <point x="685" y="290"/>
      <point x="615" y="320"/>
      <point x="515" y="320" type="curve" smooth="yes"/>
      <point x="490" y="320"/>
      <point x="455" y="315"/>
      <point x="430" y="310" type="curve"/>
      <point x="430" y="500" type="line"/>
      <point x="95" y="500" type="line"/>
      <point x="75" y="160" type="line" smooth="yes"/>
      <point x="70" y="80"/>
      <point x="35" y="50"/>
      <point x="0" y="50" type="curve"/>
      <point x="0" y="0" type="line"/>
      <point x="1" y="0"/>
      <point x="30" y="-10"/>
    </contour>
    <contour>
      <point x="430" y="60" type="line"/>
      <point x="430" y="245" type="line"/>
      <point x="485" y="245" type="line" smooth="yes"/>
      <point x="525" y="245"/>
      <point x="565" y="225"/>
      <point x="565" y="155" type="curve" smooth="yes"/>
      <point x="565" y="80"/>
      <point x="525" y="60"/>
      <point x="485" y="60" type="curve" smooth="yes"/>
    </contour>
  </outline>
</glyph>
<glyph name="Yat-cy" format="2">
  <advance width="550"/>
  <unicode hex="0462"/>
  <outline>
    <contour>
      <point x="25" y="540" type="line"/>
      <point x="270" y="540" type="line"/>
      <point x="305" y="540"/>
      <point x="355" y="550"/>
      <point x="385" y="560" type="curve"/>
      <point x="385" y="614" type="line"/>
      <point x="25" y="614" type="line"/>
    </contour>
    <component base="Softsign-cy" xOffset="35"/>
  </outline>
</glyph>
<glyph name="yat-cy" format="2">
  <advance width="500"/>
  <unicode hex="0463"/>
  <outline>
    <contour>
      <point x="265" y="-10" type="curve" smooth="yes"/>
      <point x="395" y="-10"/>
      <point x="465" y="20"/>
      <point x="465" y="155" type="curve" smooth="yes"/>
      <point x="465" y="290"/>
      <point x="395" y="320"/>
      <point x="295" y="320" type="curve" smooth="yes"/>
      <point x="270" y="320"/>
      <point x="235" y="315"/>
      <point x="210" y="310" type="curve"/>
      <point x="210" y="700" type="line"/>
      <point x="90" y="700" type="line"/>
      <point x="90" y="10" type="line"/>
      <point x="140" y="-5"/>
      <point x="190" y="-10"/>
    </contour>
    <contour>
      <point x="210" y="60" type="line"/>
      <point x="210" y="245" type="line"/>
      <point x="265" y="245" type="line" smooth="yes"/>
      <point x="305" y="245"/>
      <point x="345" y="225"/>
      <point x="345" y="155" type="curve" smooth="yes"/>
      <point x="345" y="80"/>
      <point x="305" y="60"/>
      <point x="265" y="60" type="curve" smooth="yes"/>
    </contour>
    <contour>
      <point x="10" y="488" type="line"/>
      <point x="260" y="488" type="line"/>
      <point x="295" y="488"/>
      <point x="345" y="498"/>
      <point x="375" y="508" type="curve"/>
      <point x="375" y="562" type="line"/>
      <point x="10" y="562" type="line"/>
    </contour>
  </outline>
</glyph>
<glyph name="zedescender-cy" format="2">
  <advance width="405"/>
  <unicode hex="0499"/>
  <outline>
    <contour>
      <point x="169" y="-145" type="curve"/>
      <point x="244" y="-145" type="line"/>
      <point x="244" y="35" type="line"/>
      <point x="129" y="0" type="line"/>
      <point x="134" y="-60"/>
      <point x="149" y="-110"/>
    </contour>
    <component base="ze-cy"/>
  </outline>
</glyph>
<glyph name="Kabashkir-cy" format="2">
  <advance width="580"/>
  <unicode hex="04A0"/>
  <outline>
    <contour>
      <point x="20" y="620" type="line"/>
      <point x="130" y="620" type="line"/>
      <point x="250" y="700" type="line"/>
      <point x="20" y="700" type="line"/>
    </contour>
    <component base="Ka-cy" xOffset="60"/>
  </outline>
</glyph>
<glyph name="Enghe-cy" format="2">
  <advance width="716"/>
  <unicode hex="04A4"/>
  <outline>
    <contour>
      <point x="70" y="0" type="line"/>
      <point x="190" y="0" type="line"/>
      <point x="190" y="315" type="line"/>
      <point x="370" y="315" type="line"/>
      <point x="370" y="0" type="line"/>
      <point x="491" y="0" type="line"/>
      <point x="491" y="620" type="line"/>
      <point x="696" y="620" type="line"/>
      <point x="696" y="700" type="line"/>
      <point x="370" y="700" type="line"/>
      <point x="370" y="395" type="line"/>
      <point x="190" y="395" type="line"/>
      <point x="190" y="700" type="line"/>
      <point x="70" y="700" type="line"/>
    </contour>
  </outline>
</glyph>
<glyph name="enghe-cy" format="2">
  <advance width="625"/>
  <unicode hex="04A5"/>
  <outline>
    <contour>
      <point x="65" y="0" type="line"/>
      <point x="185" y="0" type="line"/>
      <point x="185" y="215" type="line"/>
      <point x="320" y="215" type="line"/>
      <point x="320" y="0" type="line"/>
      <point x="440" y="0" type="line"/>
      <point x="440" y="425" type="line"/>
      <point x="615" y="425" type="line"/>
      <point x="615" y="500" type="line"/>
      <point x="320" y="500" type="line"/>
      <point x="320" y="290" type="line"/>
      <point x="185" y="290" type="line"/>
      <point x="185" y="500" type="line"/>
      <point x="65" y="500" type="line"/>
    </contour>
  </outline>
</glyph>
<glyph name="ustrait-cy" format="2">
  <advance width="470"/>
  <unicode hex="04AF"/>
  <anchor x="235" y="-19" name="center"/>
  <outline>
    <contour>
      <point x="175" y="-200" type="line"/>
      <point x="295" y="-200" type="line"/>
      <point x="291" y="-55" type="line"/>
      <point x="455" y="500" type="line"/>
      <point x="335" y="500" type="line"/>
      <point x="237" y="105" type="line"/>
      <point x="233" y="105" type="line"/>
      <point x="135" y="500" type="line"/>
      <point x="15" y="500" type="line"/>
      <point x="175" y="-41" type="line"/>
    </contour>
  </outline>
</glyph>
<glyph name="quotedblbase" format="2">
  <advance width="365"/>
  <unicode hex="201E"/>
  <outline>
    <contour>
      <point x="210" y="-120" type="line"/>
      <point x="290" y="-120" type="line"/>
      <point x="330" y="110" type="line"/>
      <point x="210" y="110" type="line"/>
    </contour>
    <contour>
      <point x="40" y="-120" type="line"/>
      <point x="120" y="-120" type="line"/>
      <point x="160" y="110" type="line"/>
      <point x="40" y="110" type="line"/>
    </contour>
  </outline>
</glyph>
<glyph name="dagger" format="2">
  <advance width="470"/>
  <unicode hex="2020"/>
  <outline>
    <contour>
      <point x="175" y="-200" type="line"/>
      <point x="295" y="-200" type="line"/>
      <point x="295" y="385" type="line"/>
      <point x="450" y="385" type="line"/>
      <point x="450" y="465" type="line"/>
      <point x="295" y="465" type="line"/>
      <point x="295" y="700" type="line"/>
      <point x="175" y="700" type="line"/>
      <point x="175" y="465" type="line"/>
      <point x="20" y="465" type="line"/>
      <point x="20" y="385" type="line"/>
      <point x="175" y="385" type="line"/>
    </contour>
  </outline>
</glyph>
<glyph name="ellipsis" format="2">
  <advance width="590"/>
  <unicode hex="2026"/>
  <outline>
    <contour>
      <point x="430" y="-10" type="line"/>
      <point x="550" y="-10" type="line"/>
      <point x="550" y="110" type="line"/>
      <point x="430" y="110" type="line"/>
    </contour>
    <contour>
      <point x="40" y="-10" type="line"/>
      <point x="160" y="-10" type="line"/>
      <point x="160" y="110" type="line"/>
      <point x="40" y="110" type="line"/>
    </contour>
    <contour>
      <point x="235" y="-10" type="line"/>
      <point x="355" y="-10" type="line"/>
      <point x="355" y="110" type="line"/>
      <point x="235" y="110" type="line"/>
    </contour>
  </outline>
</glyph>
<glyph name="foursuperior" format="2">
  <advance width="320"/>
  <unicode hex="2074"/>
  <outline>
    <contour>
      <point x="160" y="400" type="line"/>
      <point x="245" y="400" type="line"/>
      <point x="245" y="455" type="line"/>
      <point x="270" y="455" type="line"/>
      <point x="270" y="515" type="line"/>
      <point x="245" y="515" type="line"/>
      <point x="245" y="700" type="line"/>
      <point x="160" y="700" type="line"/>
      <point x="20" y="515" type="line"/>
      <point x="20" y="455" type="line"/>
      <point x="160" y="455" type="line"/>
    </contour>
    <contour>
      <point x="95" y="515" type="line"/>
      <point x="160" y="600" type="line"/>
      <point x="160" y="515" type="line"/>
    </contour>
  </outline>
</glyph>
<glyph name="ruble" format="2">
  <advance width="565"/>
  <unicode hex="20BD"/>
  <outline>
    <contour>
      <point x="120" y="0" type="line"/>
      <point x="240" y="0" type="line"/>
      <point x="240" y="290" type="line"/>
      <point x="265" y="285"/>
      <point x="310" y="280"/>
      <point x="325" y="280" type="curve" smooth="yes"/>
      <point x="460" y="280"/>
      <point x="530" y="339"/>
      <point x="530" y="500" type="curve" smooth="yes"/>
      <point x="530" y="651"/>
      <point x="460" y="710"/>
      <point x="295" y="710" type="curve" smooth="yes"/>
      <point x="220" y="710"/>
      <point x="170" y="705"/>
      <point x="120" y="690" type="curve"/>
    </contour>
    <contour>
      <point x="30" y="157" type="line"/>
      <point x="375" y="157" type="line"/>
      <point x="375" y="230" type="line"/>
      <point x="30" y="230" type="line"/>
    </contour>
    <contour>
      <point x="30" y="287" type="line"/>
      <point x="240" y="287" type="line"/>
      <point x="240" y="360" type="line"/>
      <point x="30" y="360" type="line"/>
    </contour>
    <contour>
      <point x="240" y="360" type="line"/>
      <point x="240" y="635" type="line"/>
      <point x="295" y="635" type="line" smooth="yes"/>
      <point x="370" y="635"/>
      <point x="410" y="604"/>
      <point x="410" y="500" type="curve" smooth="yes"/>
      <point x="410" y="391"/>
      <point x="370" y="360"/>
      <point x="295" y="360" type="curve" smooth="yes"/>
    </contour>
  </outline>
</glyph>
<glyph name="trademark" format="2">
  <advance width="695"/>
  <unicode hex="2122"/>
  <outline>
    <contour>
      <point x="285" y="400" type="line"/>
      <point x="370" y="400" type="line"/>
      <point x="380" y="575" type="line"/>
      <point x="440" y="440" type="line"/>
      <point x="510" y="440" type="line"/>
      <point x="570" y="575" type="line"/>
      <point x="580" y="400" type="line"/>
      <point x="665" y="400" type="line"/>
      <point x="645" y="700" type="line"/>
      <point x="555" y="700" type="line"/>
      <point x="475" y="524" type="line"/>
      <point x="395" y="700" type="line"/>
      <point x="305" y="700" type="line"/>
    </contour>
    <contour>
      <point x="95" y="400" type="line"/>
      <point x="180" y="400" type="line"/>
      <point x="180" y="640" type="line"/>
      <point x="265" y="640" type="line"/>
      <point x="265" y="700" type="line"/>
      <point x="10" y="700" type="line"/>
      <point x="10" y="640" type="line"/>
      <point x="95" y="640" type="line"/>
    </contour>
  </outline>
</glyph>
<glyph name="brevecomb-cy.case" format="2">
  <anchor x="285" y="700" name="_top"/>
  <outline>
    <contour>
      <point x="285" y="755" type="curve" smooth="yes"/>
      <point x="350" y="755"/>
      <point x="400" y="785"/>
      <point x="430" y="835" type="curve"/>
      <point x="380" y="885" type="line"/>
      <point x="360" y="865"/>
      <point x="325" y="840"/>
      <point x="285" y="840" type="curve" smooth="yes"/>
      <point x="245" y="840"/>
      <point x="210" y="865"/>
      <point x="190" y="885" type="curve"/>
      <point x="140" y="835" type="line"/>
      <point x="170" y="785"/>
      <point x="220" y="755"/>
    </contour>
  </outline>
</glyph>
<glyph name="descender-cy.case" format="2">
  <advance width="235"/>
  <guideline x="60" y="80" angle="0"/>
  <guideline x="0" y="390" angle="90"/>
  <anchor x="0" y="0" name="_bottomright"/>
  <outline>
    <contour>
      <point x="110" y="-150" type="curve"/>
      <point x="185" y="-150" type="line"/>
      <point x="185" y="80" type="line"/>
      <point x="0" y="80" type="line"/>
      <point x="0" y="0" type="line"/>
      <point x="70" y="0" type="line"/>
      <point x="75" y="-60"/>
      <point x="90" y="-110"/>
    </contour>
  </outline>
</glyph>
